<?xml version="1.0" encoding="utf-8" standalone="no"?>
<!DOCTYPE svg PUBLIC "-//W3C//DTD SVG 1.1//EN"
  "http://www.w3.org/Graphics/SVG/1.1/DTD/svg11.dtd">
<svg xmlns:xlink="http://www.w3.org/1999/xlink" width="97.32pt" height="12.72pt" viewBox="0 0 97.32 12.72" xmlns="http://www.w3.org/2000/svg" version="1.1">
 <metadata>
  <rdf:RDF xmlns:dc="http://purl.org/dc/elements/1.1/" xmlns:cc="http://creativecommons.org/ns#" xmlns:rdf="http://www.w3.org/1999/02/22-rdf-syntax-ns#">
   <cc:Work>
    <dc:type rdf:resource="http://purl.org/dc/dcmitype/StillImage"/>
    <dc:date>2023-10-13T22:31:34.245188</dc:date>
    <dc:format>image/svg+xml</dc:format>
    <dc:creator>
     <cc:Agent>
      <dc:title>Matplotlib v3.7.2, https://matplotlib.org/</dc:title>
     </cc:Agent>
    </dc:creator>
   </cc:Work>
  </rdf:RDF>
 </metadata>
 <defs>
  <style type="text/css">*{stroke-linejoin: round; stroke-linecap: butt}</style>
 </defs>
 <g id="figure_1">
  <g id="patch_1">
   <path d="M 0 12.72 
L 97.32 12.72 
L 97.32 -0 
L 0 -0 
L 0 12.72 
z
" style="fill: none"/>
  </g>
  <g id="text_1">
   <!-- panir պանիր $x^2$ -->
   <g transform="translate(0 10.2) scale(0.12 -0.12)">
    <defs>
     <path id="DejaVuSans-70" d="M 1159 525 
L 1159 -1331 
L 581 -1331 
L 581 3500 
L 1159 3500 
L 1159 2969 
Q 1341 3281 1617 3432 
Q 1894 3584 2278 3584 
Q 2916 3584 3314 3078 
Q 3713 2572 3713 1747 
Q 3713 922 3314 415 
Q 2916 -91 2278 -91 
Q 1894 -91 1617 61 
Q 1341 213 1159 525 
z
M 3116 1747 
Q 3116 2381 2855 2742 
Q 2594 3103 2138 3103 
Q 1681 3103 1420 2742 
Q 1159 2381 1159 1747 
Q 1159 1113 1420 752 
Q 1681 391 2138 391 
Q 2594 391 2855 752 
Q 3116 1113 3116 1747 
z
" transform="scale(0.015625)"/>
     <path id="DejaVuSans-61" d="M 2194 1759 
Q 1497 1759 1228 1600 
Q 959 1441 959 1056 
Q 959 750 1161 570 
Q 1363 391 1709 391 
Q 2188 391 2477 730 
Q 2766 1069 2766 1631 
L 2766 1759 
L 2194 1759 
z
M 3341 1997 
L 3341 0 
L 2766 0 
L 2766 531 
Q 2569 213 2275 61 
Q 1981 -91 1556 -91 
Q 1019 -91 701 211 
Q 384 513 384 1019 
Q 384 1609 779 1909 
Q 1175 2209 1959 2209 
L 2766 2209 
L 2766 2266 
Q 2766 2663 2505 2880 
Q 2244 3097 1772 3097 
Q 1472 3097 1187 3025 
Q 903 2953 641 2809 
L 641 3341 
Q 956 3463 1253 3523 
Q 1550 3584 1831 3584 
Q 2591 3584 2966 3190 
Q 3341 2797 3341 1997 
z
" transform="scale(0.015625)"/>
     <path id="DejaVuSans-6e" d="M 3513 2113 
L 3513 0 
L 2938 0 
L 2938 2094 
Q 2938 2591 2744 2837 
Q 2550 3084 2163 3084 
Q 1697 3084 1428 2787 
Q 1159 2491 1159 1978 
L 1159 0 
L 581 0 
L 581 3500 
L 1159 3500 
L 1159 2956 
Q 1366 3272 1645 3428 
Q 1925 3584 2291 3584 
Q 2894 3584 3203 3211 
Q 3513 2838 3513 2113 
z
" transform="scale(0.015625)"/>
     <path id="DejaVuSans-69" d="M 603 3500 
L 1178 3500 
L 1178 0 
L 603 0 
L 603 3500 
z
M 603 4863 
L 1178 4863 
L 1178 4134 
L 603 4134 
L 603 4863 
z
" transform="scale(0.015625)"/>
     <path id="DejaVuSans-72" d="M 2631 2963 
Q 2534 3019 2420 3045 
Q 2306 3072 2169 3072 
Q 1681 3072 1420 2755 
Q 1159 2438 1159 1844 
L 1159 0 
L 581 0 
L 581 3500 
L 1159 3500 
L 1159 2956 
Q 1341 3275 1631 3429 
Q 1922 3584 2338 3584 
Q 2397 3584 2469 3576 
Q 2541 3569 2628 3553 
L 2631 2963 
z
" transform="scale(0.015625)"/>
     <path id="DejaVuSans-20" transform="scale(0.015625)"/>
     <path id="DejaVuSans-57a" d="M 2906 669 
Q 2691 275 2392 93 
Q 2094 -88 1684 -88 
Q 1413 -88 1200 10 
Q 988 109 842 296 
Q 697 484 620 759 
Q 544 1034 544 1388 
L 544 3500 
L 1122 3500 
L 1122 1344 
Q 1122 1091 1165 914 
Q 1209 738 1300 625 
Q 1391 513 1525 463 
Q 1659 413 1844 413 
Q 2066 413 2244 489 
Q 2422 566 2548 709 
Q 2675 853 2742 1058 
Q 2809 1263 2809 1519 
L 2809 3500 
L 3388 3500 
L 3388 1406 
Q 3388 897 3564 655 
Q 3741 413 4116 413 
Q 4334 413 4512 491 
Q 4691 569 4816 714 
Q 4941 859 5008 1062 
Q 5075 1266 5075 1519 
L 5075 3500 
L 5653 3500 
L 5653 -1331 
L 5075 -1331 
L 5075 544 
Q 4878 216 4603 64 
Q 4328 -88 3950 -88 
Q 3563 -88 3300 103 
Q 3038 294 2906 669 
z
" transform="scale(0.015625)"/>
     <path id="DejaVuSans-561" d="M 2906 669 
Q 2691 275 2392 93 
Q 2094 -88 1684 -88 
Q 1413 -88 1200 10 
Q 988 109 842 296 
Q 697 484 620 759 
Q 544 1034 544 1388 
L 544 3500 
L 1122 3500 
L 1122 1344 
Q 1122 1091 1165 914 
Q 1209 738 1300 625 
Q 1391 513 1525 463 
Q 1659 413 1844 413 
Q 2066 413 2244 489 
Q 2422 566 2548 709 
Q 2675 853 2742 1058 
Q 2809 1263 2809 1519 
L 2809 3500 
L 3388 3500 
L 3388 1406 
Q 3388 897 3564 655 
Q 3741 413 4116 413 
Q 4334 413 4512 491 
Q 4691 569 4816 714 
Q 4941 859 5008 1062 
Q 5075 1266 5075 1519 
L 5075 3500 
L 5653 3500 
L 5653 0 
L 5075 0 
L 5075 544 
Q 4878 216 4603 64 
Q 4328 -88 3950 -88 
Q 3563 -88 3300 103 
Q 3038 294 2906 669 
z
" transform="scale(0.015625)"/>
     <path id="DejaVuSans-576" d="M -122 4863 
L 1119 4863 
L 1119 1403 
Q 1119 409 1894 409 
Q 2128 409 2314 487 
Q 2500 566 2629 709 
Q 2759 853 2829 1058 
Q 2900 1263 2900 1516 
L 2900 3500 
L 3475 3500 
L 3475 0 
L 2900 0 
L 2900 538 
Q 2691 216 2416 62 
Q 2141 -91 1772 -91 
Q 1163 -91 853 281 
Q 544 653 544 1381 
L 544 4363 
L -122 4363 
L -122 4863 
z
" transform="scale(0.015625)"/>
     <path id="DejaVuSans-56b" d="M 3513 2113 
L 3513 0 
L 2938 0 
L 2938 2094 
Q 2938 3084 2163 3084 
Q 1697 3084 1428 2787 
Q 1159 2491 1159 1978 
L 1159 -1331 
L 581 -1331 
L 581 4863 
L 1159 4863 
L 1159 2956 
Q 1366 3275 1644 3429 
Q 1922 3584 2291 3584 
Q 2897 3584 3205 3212 
Q 3513 2841 3513 2113 
z
" transform="scale(0.015625)"/>
     <path id="DejaVuSans-580" d="M 3513 2113 
L 3513 0 
L 2938 0 
L 2938 2094 
Q 2938 3084 2163 3084 
Q 1928 3084 1742 3006 
Q 1556 2928 1426 2784 
Q 1297 2641 1228 2436 
Q 1159 2231 1159 1978 
L 1159 -1331 
L 581 -1331 
L 581 3500 
L 1159 3500 
L 1159 2956 
Q 1366 3278 1644 3431 
Q 1922 3584 2291 3584 
Q 2900 3584 3206 3215 
Q 3513 2847 3513 2113 
z
" transform="scale(0.015625)"/>
     <path id="Cmmi10-78" d="M 500 184 
Q 613 97 819 97 
Q 1019 97 1172 289 
Q 1325 481 1381 709 
L 1672 1844 
Q 1741 2153 1741 2266 
Q 1741 2425 1652 2544 
Q 1563 2663 1403 2663 
Q 1200 2663 1022 2536 
Q 844 2409 722 2214 
Q 600 2019 550 1819 
Q 538 1778 500 1778 
L 422 1778 
Q 372 1778 372 1838 
L 372 1856 
Q 434 2094 584 2320 
Q 734 2547 951 2687 
Q 1169 2828 1416 2828 
Q 1650 2828 1839 2703 
Q 2028 2578 2106 2363 
Q 2216 2559 2386 2693 
Q 2556 2828 2759 2828 
Q 2897 2828 3040 2779 
Q 3184 2731 3275 2631 
Q 3366 2531 3366 2381 
Q 3366 2219 3261 2101 
Q 3156 1984 2994 1984 
Q 2891 1984 2822 2050 
Q 2753 2116 2753 2216 
Q 2753 2350 2845 2451 
Q 2938 2553 3066 2572 
Q 2950 2663 2747 2663 
Q 2541 2663 2389 2472 
Q 2238 2281 2175 2047 
L 1894 916 
Q 1825 659 1825 494 
Q 1825 331 1917 214 
Q 2009 97 2163 97 
Q 2463 97 2698 361 
Q 2934 625 3009 941 
Q 3022 978 3059 978 
L 3138 978 
Q 3163 978 3178 961 
Q 3194 944 3194 922 
Q 3194 916 3188 903 
Q 3097 522 2806 225 
Q 2516 -72 2150 -72 
Q 1916 -72 1727 54 
Q 1538 181 1459 397 
Q 1359 209 1182 68 
Q 1006 -72 806 -72 
Q 669 -72 523 -23 
Q 378 25 287 125 
Q 197 225 197 378 
Q 197 528 301 651 
Q 406 775 563 775 
Q 669 775 741 711 
Q 813 647 813 544 
Q 813 409 723 309 
Q 634 209 500 184 
z
" transform="scale(0.015625)"/>
     <path id="Cmr10-32" d="M 319 0 
L 319 172 
Q 319 188 331 206 
L 1325 1306 
Q 1550 1550 1690 1715 
Q 1831 1881 1968 2097 
Q 2106 2313 2186 2536 
Q 2266 2759 2266 3009 
Q 2266 3272 2169 3511 
Q 2072 3750 1880 3894 
Q 1688 4038 1416 4038 
Q 1138 4038 916 3870 
Q 694 3703 603 3438 
Q 628 3444 672 3444 
Q 816 3444 917 3347 
Q 1019 3250 1019 3097 
Q 1019 2950 917 2848 
Q 816 2747 672 2747 
Q 522 2747 420 2851 
Q 319 2956 319 3097 
Q 319 3338 409 3548 
Q 500 3759 670 3923 
Q 841 4088 1055 4175 
Q 1269 4263 1509 4263 
Q 1875 4263 2190 4108 
Q 2506 3953 2690 3670 
Q 2875 3388 2875 3009 
Q 2875 2731 2753 2481 
Q 2631 2231 2440 2026 
Q 2250 1822 1953 1562 
Q 1656 1303 1563 1216 
L 838 519 
L 1453 519 
Q 1906 519 2211 526 
Q 2516 534 2534 550 
Q 2609 631 2688 1141 
L 2875 1141 
L 2694 0 
L 319 0 
z
" transform="scale(0.015625)"/>
    </defs>
    <use xlink:href="#DejaVuSans-70" transform="translate(0 0.109375)"/>
    <use xlink:href="#DejaVuSans-61" transform="translate(63.476562 0.109375)"/>
    <use xlink:href="#DejaVuSans-6e" transform="translate(124.755859 0.109375)"/>
    <use xlink:href="#DejaVuSans-69" transform="translate(188.134766 0.109375)"/>
    <use xlink:href="#DejaVuSans-72" transform="translate(215.917969 0.109375)"/>
    <use xlink:href="#DejaVuSans-20" transform="translate(257.03125 0.109375)"/>
    <use xlink:href="#DejaVuSans-57a" transform="translate(288.818359 0.109375)"/>
    <use xlink:href="#DejaVuSans-561" transform="translate(386.230469 0.109375)"/>
    <use xlink:href="#DejaVuSans-576" transform="translate(483.642578 0.109375)"/>
    <use xlink:href="#DejaVuSans-56b" transform="translate(547.021484 0.109375)"/>
    <use xlink:href="#DejaVuSans-580" transform="translate(610.400391 0.109375)"/>
    <use xlink:href="#DejaVuSans-20" transform="translate(673.779297 0.109375)"/>
    <use xlink:href="#Cmmi10-78" transform="translate(705.566406 0.109375)"/>
    <use xlink:href="#Cmr10-32" transform="translate(768.949766 38.373438) scale(0.7)"/>
   </g>
  </g>
 </g>
</svg>
