<?xml version="1.0" encoding="utf-8" standalone="no"?>
<!DOCTYPE svg PUBLIC "-//W3C//DTD SVG 1.1//EN"
  "http://www.w3.org/Graphics/SVG/1.1/DTD/svg11.dtd">
<svg xmlns:xlink="http://www.w3.org/1999/xlink" width="42pt" height="14.52pt" viewBox="0 0 42 14.52" xmlns="http://www.w3.org/2000/svg" version="1.1">
 <metadata>
  <rdf:RDF xmlns:dc="http://purl.org/dc/elements/1.1/" xmlns:cc="http://creativecommons.org/ns#" xmlns:rdf="http://www.w3.org/1999/02/22-rdf-syntax-ns#">
   <cc:Work>
    <dc:type rdf:resource="http://purl.org/dc/dcmitype/StillImage"/>
    <dc:date>2023-10-19T21:50:42.236297</dc:date>
    <dc:format>image/svg+xml</dc:format>
    <dc:creator>
     <cc:Agent>
      <dc:title>Matplotlib v3.7.2, https://matplotlib.org/</dc:title>
     </cc:Agent>
    </dc:creator>
   </cc:Work>
  </rdf:RDF>
 </metadata>
 <defs>
  <style type="text/css">*{stroke-linejoin: round; stroke-linecap: butt}</style>
 </defs>
 <g id="figure_1">
  <g id="patch_1">
   <path d="M 0 14.52 
L 42 14.52 
L 42 0 
L 0 0 
L 0 14.52 
z
" style="fill: none"/>
  </g>
  <g id="text_1">
   <!-- $y \rightarrow \{ y\}$ -->
   <g transform="translate(0 11.76) scale(0.12 -0.12)">
    <defs>
     <path id="Cmmi10-79" d="M 538 -916 
Q 672 -1147 1006 -1147 
Q 1309 -1147 1531 -934 
Q 1753 -722 1889 -420 
Q 2025 -119 2100 197 
Q 1816 -72 1484 -72 
Q 1231 -72 1053 15 
Q 875 103 776 276 
Q 678 450 678 697 
Q 678 906 734 1126 
Q 791 1347 892 1617 
Q 994 1888 1069 2088 
Q 1153 2322 1153 2472 
Q 1153 2663 1013 2663 
Q 759 2663 595 2402 
Q 431 2141 353 1819 
Q 341 1778 300 1778 
L 225 1778 
Q 172 1778 172 1838 
L 172 1856 
Q 275 2238 487 2533 
Q 700 2828 1025 2828 
Q 1253 2828 1411 2678 
Q 1569 2528 1569 2297 
Q 1569 2178 1516 2047 
Q 1488 1969 1388 1706 
Q 1288 1444 1234 1272 
Q 1181 1100 1147 934 
Q 1113 769 1113 603 
Q 1113 391 1203 244 
Q 1294 97 1491 97 
Q 1888 97 2203 581 
L 2688 2553 
Q 2709 2638 2787 2698 
Q 2866 2759 2956 2759 
Q 3034 2759 3092 2709 
Q 3150 2659 3150 2578 
Q 3150 2541 3144 2528 
L 2509 -19 
Q 2425 -347 2200 -647 
Q 1975 -947 1658 -1130 
Q 1341 -1313 997 -1313 
Q 831 -1313 668 -1248 
Q 506 -1184 406 -1056 
Q 306 -928 306 -756 
Q 306 -581 409 -453 
Q 513 -325 684 -325 
Q 788 -325 858 -389 
Q 928 -453 928 -556 
Q 928 -703 818 -812 
Q 709 -922 563 -922 
Q 556 -919 550 -917 
Q 544 -916 538 -916 
z
" transform="scale(0.015625)"/>
     <path id="Cmsy10-21" d="M 481 1472 
Q 428 1472 393 1512 
Q 359 1553 359 1600 
Q 359 1647 393 1687 
Q 428 1728 481 1728 
L 5338 1728 
Q 5094 1903 4906 2133 
Q 4719 2363 4594 2627 
Q 4469 2891 4416 3188 
Q 4416 3272 4481 3272 
L 4609 3272 
Q 4631 3272 4648 3253 
Q 4666 3234 4672 3213 
Q 4725 2938 4839 2702 
Q 4953 2466 5125 2262 
Q 5297 2059 5509 1912 
Q 5722 1766 5991 1672 
Q 6034 1644 6034 1600 
Q 6034 1550 5991 1538 
Q 5656 1422 5378 1192 
Q 5100 963 4919 652 
Q 4738 341 4672 -13 
Q 4666 -34 4647 -53 
Q 4628 -72 4609 -72 
L 4481 -72 
Q 4416 -72 4416 13 
Q 4497 450 4740 836 
Q 4984 1222 5338 1472 
L 481 1472 
z
" transform="scale(0.015625)"/>
     <path id="Cmex10-a9" d="M 1631 -6425 
L 1631 -4556 
Q 1631 -4338 1503 -4159 
Q 1375 -3981 1184 -3867 
Q 994 -3753 756 -3675 
Q 709 -3650 709 -3622 
L 709 -3547 
Q 709 -3503 756 -3494 
Q 1128 -3366 1379 -3150 
Q 1631 -2934 1631 -2606 
L 1631 -738 
Q 1631 -325 2004 -95 
Q 2378 134 2888 256 
L 2963 256 
Q 2981 256 2998 242 
Q 3016 228 3016 206 
L 3016 128 
Q 3016 91 2975 78 
Q 2619 -31 2359 -232 
Q 2100 -434 2100 -750 
L 2100 -2619 
Q 2100 -2994 1804 -3214 
Q 1509 -3434 1056 -3584 
Q 1497 -3716 1798 -3939 
Q 2100 -4163 2100 -4544 
L 2100 -6413 
Q 2100 -6628 2231 -6790 
Q 2363 -6953 2556 -7059 
Q 2750 -7166 2975 -7238 
Q 3016 -7250 3016 -7291 
L 3016 -7366 
Q 3016 -7384 2998 -7401 
Q 2981 -7419 2963 -7419 
L 2888 -7419 
Q 2559 -7338 2292 -7227 
Q 2025 -7116 1828 -6914 
Q 1631 -6713 1631 -6425 
z
" transform="scale(0.015625)"/>
     <path id="Cmex10-aa" d="M 709 -7366 
L 709 -7291 
Q 709 -7247 756 -7238 
Q 1631 -6953 1631 -6413 
L 1631 -4544 
Q 1631 -3909 2669 -3584 
Q 2219 -3431 1925 -3209 
Q 1631 -2988 1631 -2619 
L 1631 -750 
Q 1631 -206 756 78 
Q 709 88 709 128 
L 709 206 
Q 709 256 769 256 
L 844 256 
Q 1359 131 1729 -97 
Q 2100 -325 2100 -738 
L 2100 -2606 
Q 2100 -2925 2354 -3142 
Q 2609 -3359 2975 -3494 
Q 3016 -3506 3016 -3547 
L 3016 -3622 
Q 3016 -3641 2975 -3675 
Q 2769 -3744 2566 -3864 
Q 2363 -3984 2231 -4161 
Q 2100 -4338 2100 -4556 
L 2100 -6425 
Q 2100 -6713 1901 -6914 
Q 1703 -7116 1437 -7227 
Q 1172 -7338 844 -7419 
L 769 -7419 
Q 744 -7419 726 -7401 
Q 709 -7384 709 -7366 
z
" transform="scale(0.015625)"/>
    </defs>
    <use xlink:href="#Cmmi10-79" transform="translate(0 0.705729)"/>
    <use xlink:href="#Cmsy10-21" transform="translate(66.582031 0.705729)"/>
    <use xlink:href="#Cmex10-a9" transform="translate(184.140625 94)"/>
    <use xlink:href="#Cmmi10-79" transform="translate(242.441406 0.705729)"/>
    <use xlink:href="#Cmex10-aa" transform="translate(291.464844 94)"/>
   </g>
  </g>
 </g>
</svg>
