<?xml version="1.0" encoding="utf-8" standalone="no"?>
<!DOCTYPE svg PUBLIC "-//W3C//DTD SVG 1.1//EN"
  "http://www.w3.org/Graphics/SVG/1.1/DTD/svg11.dtd">
<svg xmlns:xlink="http://www.w3.org/1999/xlink" width="515.88pt" height="13.44pt" viewBox="0 0 515.88 13.44" xmlns="http://www.w3.org/2000/svg" version="1.1">
 <metadata>
  <rdf:RDF xmlns:dc="http://purl.org/dc/elements/1.1/" xmlns:cc="http://creativecommons.org/ns#" xmlns:rdf="http://www.w3.org/1999/02/22-rdf-syntax-ns#">
   <cc:Work>
    <dc:type rdf:resource="http://purl.org/dc/dcmitype/StillImage"/>
    <dc:date>2023-10-19T21:50:42.947736</dc:date>
    <dc:format>image/svg+xml</dc:format>
    <dc:creator>
     <cc:Agent>
      <dc:title>Matplotlib v3.7.2, https://matplotlib.org/</dc:title>
     </cc:Agent>
    </dc:creator>
   </cc:Work>
  </rdf:RDF>
 </metadata>
 <defs>
  <style type="text/css">*{stroke-linejoin: round; stroke-linecap: butt}</style>
 </defs>
 <g id="figure_1">
  <g id="patch_1">
   <path d="M 0 13.44 
L 515.88 13.44 
L 515.88 0 
L 0 0 
L 0 13.44 
z
" style="fill: none"/>
  </g>
  <g id="text_1">
   <!-- $X$-ի ենթաբազմությունների բազմությունը կնշանակենք $2^{X}$-ով։  կամ $exp(X$) $Ens(X)$  -->
   <g transform="translate(0 10.44) scale(0.12 -0.12)">
    <defs>
     <path id="Cmmi10-58" d="M 231 0 
Q 166 0 166 84 
Q 169 100 180 140 
Q 191 181 208 203 
Q 225 225 256 225 
Q 838 225 1253 659 
Q 1259 666 1267 669 
Q 1275 672 1275 672 
L 2675 2181 
L 1913 4019 
Q 1847 4103 1700 4125 
Q 1553 4147 1356 4147 
Q 1294 4147 1294 4231 
Q 1316 4313 1328 4342 
Q 1341 4372 1403 4372 
L 3003 4372 
Q 3066 4372 3066 4288 
Q 3063 4272 3052 4231 
Q 3041 4191 3023 4169 
Q 3006 4147 2975 4147 
Q 2856 4147 2729 4108 
Q 2603 4069 2553 3981 
L 3103 2656 
L 4153 3781 
Q 4163 3803 4197 3858 
Q 4231 3913 4231 3963 
Q 4231 4056 4150 4101 
Q 4069 4147 3956 4147 
Q 3891 4147 3891 4231 
Q 3913 4313 3925 4342 
Q 3938 4372 4000 4372 
L 5388 4372 
Q 5422 4372 5437 4347 
Q 5453 4322 5453 4288 
Q 5450 4272 5440 4234 
Q 5431 4197 5415 4172 
Q 5400 4147 5369 4147 
Q 5072 4147 4823 4039 
Q 4575 3931 4366 3713 
Q 4363 3709 4358 3707 
Q 4353 3706 4347 3700 
L 3188 2450 
L 4063 353 
Q 4166 225 4622 225 
Q 4684 225 4684 141 
Q 4663 56 4648 28 
Q 4634 0 4575 0 
L 2975 0 
Q 2913 0 2913 84 
Q 2916 100 2925 139 
Q 2934 178 2951 201 
Q 2969 225 2994 225 
Q 3119 225 3247 264 
Q 3375 303 3425 391 
L 2759 1984 
L 1466 588 
Q 1456 566 1422 512 
Q 1388 459 1388 409 
Q 1388 316 1475 270 
Q 1563 225 1663 225 
Q 1728 225 1728 141 
Q 1706 50 1693 25 
Q 1681 0 1619 0 
L 231 0 
z
" transform="scale(0.015625)"/>
     <path id="DejaVuSans-2d" d="M 313 2009 
L 1997 2009 
L 1997 1497 
L 313 1497 
L 313 2009 
z
" transform="scale(0.015625)"/>
     <path id="DejaVuSans-56b" d="M 3513 2113 
L 3513 0 
L 2938 0 
L 2938 2094 
Q 2938 3084 2163 3084 
Q 1697 3084 1428 2787 
Q 1159 2491 1159 1978 
L 1159 -1331 
L 581 -1331 
L 581 4863 
L 1159 4863 
L 1159 2956 
Q 1366 3275 1644 3429 
Q 1922 3584 2291 3584 
Q 2897 3584 3205 3212 
Q 3513 2841 3513 2113 
z
" transform="scale(0.015625)"/>
     <path id="DejaVuSans-20" transform="scale(0.015625)"/>
     <path id="DejaVuSans-565" d="M 544 1381 
L 544 4863 
L 1119 4863 
L 1119 3500 
L 3506 3500 
L 3506 3000 
L 1119 3000 
L 1119 1403 
Q 1119 906 1313 656 
Q 1503 409 1894 409 
Q 2369 409 2631 706 
Q 2900 1013 2900 1516 
L 2900 2250 
L 3475 2250 
L 3475 0 
L 2900 0 
L 2900 538 
Q 2691 216 2416 62 
Q 2141 -91 1772 -91 
Q 1169 -91 856 284 
Q 544 656 544 1381 
z
" transform="scale(0.015625)"/>
     <path id="DejaVuSans-576" d="M -122 4863 
L 1119 4863 
L 1119 1403 
Q 1119 409 1894 409 
Q 2128 409 2314 487 
Q 2500 566 2629 709 
Q 2759 853 2829 1058 
Q 2900 1263 2900 1516 
L 2900 3500 
L 3475 3500 
L 3475 0 
L 2900 0 
L 2900 538 
Q 2691 216 2416 62 
Q 2141 -91 1772 -91 
Q 1163 -91 853 281 
Q 544 653 544 1381 
L 544 4363 
L -122 4363 
L -122 4863 
z
" transform="scale(0.015625)"/>
     <path id="DejaVuSans-569" d="M 2719 1747 
L 3672 1747 
Q 3672 2059 3559 2311 
Q 3447 2563 3262 2738 
Q 3078 2913 2842 3008 
Q 2606 3103 2359 3103 
Q 2103 3103 1884 3039 
Q 1666 2975 1505 2834 
Q 1344 2694 1251 2472 
Q 1159 2250 1159 1934 
L 1159 -1331 
L 581 -1331 
L 581 3500 
L 1159 3500 
L 1159 2969 
Q 1291 3156 1445 3275 
Q 1600 3394 1770 3462 
Q 1941 3531 2125 3557 
Q 2309 3584 2500 3584 
Q 2713 3584 2925 3523 
Q 3138 3463 3334 3350 
Q 3531 3238 3701 3075 
Q 3872 2913 3998 2708 
Q 4125 2503 4197 2261 
Q 4269 2019 4269 1747 
L 4725 1747 
L 4725 1247 
L 4256 1247 
Q 4200 894 4050 642 
Q 3900 391 3698 227 
Q 3497 63 3265 -14 
Q 3034 -91 2816 -91 
Q 2591 -91 2392 -34 
Q 2194 22 2044 136 
Q 1894 250 1806 422 
Q 1719 594 1719 825 
Q 1719 1056 1805 1229 
Q 1891 1403 2031 1517 
Q 2172 1631 2351 1689 
Q 2531 1747 2719 1747 
z
M 3650 1247 
L 2719 1247 
Q 2638 1247 2559 1223 
Q 2481 1200 2418 1148 
Q 2356 1097 2318 1017 
Q 2281 938 2281 825 
Q 2281 734 2317 657 
Q 2353 581 2420 522 
Q 2488 463 2588 430 
Q 2688 397 2816 397 
Q 2894 397 3020 433 
Q 3147 469 3273 564 
Q 3400 659 3506 823 
Q 3613 988 3650 1247 
z
" transform="scale(0.015625)"/>
     <path id="DejaVuSans-561" d="M 2906 669 
Q 2691 275 2392 93 
Q 2094 -88 1684 -88 
Q 1413 -88 1200 10 
Q 988 109 842 296 
Q 697 484 620 759 
Q 544 1034 544 1388 
L 544 3500 
L 1122 3500 
L 1122 1344 
Q 1122 1091 1165 914 
Q 1209 738 1300 625 
Q 1391 513 1525 463 
Q 1659 413 1844 413 
Q 2066 413 2244 489 
Q 2422 566 2548 709 
Q 2675 853 2742 1058 
Q 2809 1263 2809 1519 
L 2809 3500 
L 3388 3500 
L 3388 1406 
Q 3388 897 3564 655 
Q 3741 413 4116 413 
Q 4334 413 4512 491 
Q 4691 569 4816 714 
Q 4941 859 5008 1062 
Q 5075 1266 5075 1519 
L 5075 3500 
L 5653 3500 
L 5653 0 
L 5075 0 
L 5075 544 
Q 4878 216 4603 64 
Q 4328 -88 3950 -88 
Q 3563 -88 3300 103 
Q 3038 294 2906 669 
z
" transform="scale(0.015625)"/>
     <path id="DejaVuSans-562" d="M 2938 1406 
L 2938 2094 
Q 2938 3084 2163 3084 
Q 1697 3084 1428 2787 
Q 1159 2491 1159 1978 
L 1159 500 
L 3513 500 
L 3513 0 
L 1159 0 
L 1159 -1331 
L 581 -1331 
L 581 3500 
L 1159 3500 
L 1159 2956 
Q 1366 3275 1644 3429 
Q 1922 3584 2291 3584 
Q 2897 3584 3205 3212 
Q 3513 2841 3513 2113 
L 3513 1406 
L 2938 1406 
z
" transform="scale(0.015625)"/>
     <path id="DejaVuSans-566" d="M 3481 -831 
L 4147 -831 
L 4147 -1331 
L 2906 -1331 
L 2906 525 
Q 2725 213 2450 61 
Q 2175 -91 1784 -91 
Q 1466 -91 1203 42 
Q 941 175 752 417 
Q 563 659 458 998 
Q 353 1338 353 1747 
Q 353 2156 458 2495 
Q 563 2834 752 3076 
Q 941 3319 1203 3451 
Q 1466 3584 1784 3584 
Q 2175 3584 2450 3432 
Q 2725 3281 2906 2969 
L 2906 3500 
L 3481 3500 
L 3481 -831 
z
M 947 1747 
Q 947 1503 998 1259 
Q 1050 1016 1164 823 
Q 1278 631 1465 511 
Q 1653 391 1925 391 
Q 2113 391 2258 448 
Q 2403 506 2512 607 
Q 2622 709 2697 842 
Q 2772 975 2819 1126 
Q 2866 1278 2886 1437 
Q 2906 1597 2906 1747 
Q 2906 1991 2854 2233 
Q 2803 2475 2686 2669 
Q 2569 2863 2383 2983 
Q 2197 3103 1925 3103 
Q 1738 3103 1592 3043 
Q 1447 2984 1339 2884 
Q 1231 2784 1156 2650 
Q 1081 2516 1034 2366 
Q 988 2216 967 2056 
Q 947 1897 947 1747 
z
" transform="scale(0.015625)"/>
     <path id="DejaVuSans-574" d="M 544 1381 
L 544 3500 
L 1119 3500 
L 1119 1403 
Q 1119 409 1894 409 
Q 2128 409 2314 487 
Q 2500 566 2629 709 
Q 2759 853 2829 1058 
Q 2900 1263 2900 1516 
L 2900 4863 
L 4141 4863 
L 4141 4363 
L 3475 4363 
L 3475 0 
L 2900 0 
L 2900 538 
Q 2691 216 2416 62 
Q 2141 -91 1772 -91 
Q 1163 -91 853 281 
Q 544 653 544 1381 
z
" transform="scale(0.015625)"/>
     <path id="DejaVuSans-578" d="M 3513 2113 
L 3513 0 
L 2938 0 
L 2938 2094 
Q 2938 2591 2744 2837 
Q 2550 3084 2163 3084 
Q 1697 3084 1428 2787 
Q 1159 2491 1159 1978 
L 1159 0 
L 581 0 
L 581 3500 
L 1159 3500 
L 1159 2956 
Q 1366 3272 1645 3428 
Q 1925 3584 2291 3584 
Q 2894 3584 3203 3211 
Q 3513 2838 3513 2113 
z
" transform="scale(0.015625)"/>
     <path id="DejaVuSans-582" d="M 1156 500 
L 2875 500 
L 2875 0 
L 581 0 
L 581 3500 
L 1156 3500 
L 1156 500 
z
" transform="scale(0.015625)"/>
     <path id="DejaVuSans-575" d="M 581 3500 
L 1156 3500 
L 1156 -63 
Q 1156 -731 901 -1031 
Q 647 -1331 81 -1331 
L -138 -1331 
L -138 -844 
L 16 -844 
Q 344 -844 462 -692 
Q 581 -541 581 -63 
L 581 3500 
z
" transform="scale(0.015625)"/>
     <path id="DejaVuSans-580" d="M 3513 2113 
L 3513 0 
L 2938 0 
L 2938 2094 
Q 2938 3084 2163 3084 
Q 1928 3084 1742 3006 
Q 1556 2928 1426 2784 
Q 1297 2641 1228 2436 
Q 1159 2231 1159 1978 
L 1159 -1331 
L 581 -1331 
L 581 3500 
L 1159 3500 
L 1159 2956 
Q 1366 3278 1644 3431 
Q 1922 3584 2291 3584 
Q 2900 3584 3206 3215 
Q 3513 2847 3513 2113 
z
" transform="scale(0.015625)"/>
     <path id="DejaVuSans-568" d="M 2938 0 
L 2938 2094 
Q 2938 3084 2163 3084 
Q 1697 3084 1428 2787 
Q 1159 2491 1159 1978 
L 1159 -831 
L 3513 -831 
L 3513 -1331 
L 581 -1331 
L 581 3500 
L 1159 3500 
L 1159 2956 
Q 1366 3275 1644 3429 
Q 1922 3584 2291 3584 
Q 2897 3584 3205 3212 
Q 3513 2841 3513 2113 
L 3513 0 
L 2938 0 
z
" transform="scale(0.015625)"/>
     <path id="DejaVuSans-56f" d="M 544 1381 
L 544 4863 
L 1119 4863 
L 1119 1403 
Q 1119 409 1894 409 
Q 2359 409 2628 706 
Q 2900 1000 2900 1516 
L 2900 3500 
L 3475 3500 
L 3475 -1331 
L 2900 -1331 
L 2900 538 
Q 2691 216 2416 62 
Q 2141 -91 1772 -91 
Q 1166 -91 855 282 
Q 544 656 544 1381 
z
" transform="scale(0.015625)"/>
     <path id="DejaVuSans-577" d="M 603 -678 
Q 603 -703 609 -729 
Q 616 -756 631 -779 
Q 647 -803 678 -817 
Q 709 -831 763 -831 
L 2613 -831 
L 2613 -1331 
L 575 -1331 
Q 444 -1331 337 -1289 
Q 231 -1247 156 -1173 
Q 81 -1100 40 -1001 
Q 0 -903 0 -791 
Q 0 -638 94 -472 
Q 188 -306 341 -129 
Q 494 47 689 231 
Q 884 416 1089 609 
Q 1294 803 1489 1001 
Q 1684 1200 1837 1404 
Q 1991 1609 2084 1817 
Q 2178 2025 2178 2234 
Q 2178 2459 2108 2623 
Q 2038 2788 1909 2894 
Q 1781 3000 1601 3051 
Q 1422 3103 1200 3103 
Q 916 3103 675 3043 
Q 434 2984 191 2853 
L 191 3397 
Q 309 3441 425 3477 
Q 541 3513 664 3536 
Q 788 3559 927 3571 
Q 1066 3584 1231 3584 
Q 1591 3584 1878 3501 
Q 2166 3419 2367 3250 
Q 2569 3081 2676 2828 
Q 2784 2575 2784 2234 
Q 2784 2000 2690 1767 
Q 2597 1534 2444 1309 
Q 2291 1084 2094 873 
Q 1897 663 1694 469 
Q 1491 275 1294 101 
Q 1097 -72 944 -219 
Q 791 -366 697 -481 
Q 603 -597 603 -678 
z
" transform="scale(0.015625)"/>
     <path id="DejaVuSans-584" d="M 1159 525 
L 1159 -550 
L 3625 -550 
L 3625 -1034 
L 1159 -1034 
L 1159 -1331 
L 581 -1331 
L 581 -1034 
L 128 -1034 
L 128 -550 
L 581 -550 
L 581 3500 
L 1159 3500 
L 1159 2969 
Q 1341 3281 1616 3432 
Q 1891 3584 2278 3584 
Q 2597 3584 2859 3450 
Q 3122 3316 3312 3073 
Q 3503 2831 3608 2493 
Q 3713 2156 3713 1747 
Q 3713 1338 3608 1000 
Q 3503 663 3312 420 
Q 3122 178 2859 43 
Q 2597 -91 2278 -91 
Q 1891 -91 1616 61 
Q 1341 213 1159 525 
z
M 3116 1747 
Q 3116 2059 3048 2311 
Q 2981 2563 2854 2738 
Q 2728 2913 2547 3008 
Q 2366 3103 2137 3103 
Q 1909 3103 1728 3009 
Q 1547 2916 1420 2741 
Q 1294 2566 1226 2314 
Q 1159 2063 1159 1747 
Q 1159 1431 1226 1179 
Q 1294 928 1420 753 
Q 1547 578 1728 484 
Q 1909 391 2137 391 
Q 2366 391 2548 484 
Q 2731 578 2856 754 
Q 2981 931 3048 1181 
Q 3116 1431 3116 1747 
z
" transform="scale(0.015625)"/>
     <path id="Cmr10-32" d="M 319 0 
L 319 172 
Q 319 188 331 206 
L 1325 1306 
Q 1550 1550 1690 1715 
Q 1831 1881 1968 2097 
Q 2106 2313 2186 2536 
Q 2266 2759 2266 3009 
Q 2266 3272 2169 3511 
Q 2072 3750 1880 3894 
Q 1688 4038 1416 4038 
Q 1138 4038 916 3870 
Q 694 3703 603 3438 
Q 628 3444 672 3444 
Q 816 3444 917 3347 
Q 1019 3250 1019 3097 
Q 1019 2950 917 2848 
Q 816 2747 672 2747 
Q 522 2747 420 2851 
Q 319 2956 319 3097 
Q 319 3338 409 3548 
Q 500 3759 670 3923 
Q 841 4088 1055 4175 
Q 1269 4263 1509 4263 
Q 1875 4263 2190 4108 
Q 2506 3953 2690 3670 
Q 2875 3388 2875 3009 
Q 2875 2731 2753 2481 
Q 2631 2231 2440 2026 
Q 2250 1822 1953 1562 
Q 1656 1303 1563 1216 
L 838 519 
L 1453 519 
Q 1906 519 2211 526 
Q 2516 534 2534 550 
Q 2609 631 2688 1141 
L 2875 1141 
L 2694 0 
L 319 0 
z
" transform="scale(0.015625)"/>
     <path id="DejaVuSans-57e" d="M 544 1381 
L 544 3500 
L 1119 3500 
L 1119 1403 
Q 1119 409 1894 409 
Q 2128 409 2314 487 
Q 2500 566 2629 709 
Q 2759 853 2829 1058 
Q 2900 1263 2900 1516 
L 2900 4863 
L 3475 4863 
L 3475 -831 
L 4141 -831 
L 4141 -1331 
L 2900 -1331 
L 2900 538 
Q 2691 216 2416 62 
Q 2141 -91 1772 -91 
Q 1163 -91 853 281 
Q 544 653 544 1381 
z
" transform="scale(0.015625)"/>
     <path id="DejaVuSans-589" d="M 750 794 
L 1409 794 
L 1409 0 
L 750 0 
L 750 794 
z
M 750 2656 
L 1409 2656 
L 1409 1863 
L 750 1863 
L 750 2656 
z
" transform="scale(0.015625)"/>
     <path id="Cmmi10-65" d="M 1288 -72 
Q 981 -72 751 87 
Q 522 247 401 517 
Q 281 788 281 1088 
Q 281 1544 511 1945 
Q 741 2347 1134 2587 
Q 1528 2828 1978 2828 
Q 2253 2828 2458 2686 
Q 2663 2544 2663 2278 
Q 2663 1909 2369 1729 
Q 2075 1550 1706 1508 
Q 1338 1466 891 1466 
L 872 1466 
Q 769 1084 769 813 
Q 769 528 900 312 
Q 1031 97 1300 97 
Q 1681 97 2032 272 
Q 2384 447 2606 756 
Q 2625 775 2656 775 
Q 2688 775 2720 739 
Q 2753 703 2753 672 
Q 2753 647 2741 634 
Q 2506 306 2109 117 
Q 1713 -72 1288 -72 
z
M 909 1631 
Q 1281 1631 1597 1665 
Q 1913 1700 2169 1839 
Q 2425 1978 2425 2272 
Q 2425 2391 2359 2480 
Q 2294 2569 2189 2616 
Q 2084 2663 1972 2663 
Q 1700 2663 1483 2516 
Q 1266 2369 1125 2133 
Q 984 1897 909 1631 
z
" transform="scale(0.015625)"/>
     <path id="Cmmi10-78" d="M 500 184 
Q 613 97 819 97 
Q 1019 97 1172 289 
Q 1325 481 1381 709 
L 1672 1844 
Q 1741 2153 1741 2266 
Q 1741 2425 1652 2544 
Q 1563 2663 1403 2663 
Q 1200 2663 1022 2536 
Q 844 2409 722 2214 
Q 600 2019 550 1819 
Q 538 1778 500 1778 
L 422 1778 
Q 372 1778 372 1838 
L 372 1856 
Q 434 2094 584 2320 
Q 734 2547 951 2687 
Q 1169 2828 1416 2828 
Q 1650 2828 1839 2703 
Q 2028 2578 2106 2363 
Q 2216 2559 2386 2693 
Q 2556 2828 2759 2828 
Q 2897 2828 3040 2779 
Q 3184 2731 3275 2631 
Q 3366 2531 3366 2381 
Q 3366 2219 3261 2101 
Q 3156 1984 2994 1984 
Q 2891 1984 2822 2050 
Q 2753 2116 2753 2216 
Q 2753 2350 2845 2451 
Q 2938 2553 3066 2572 
Q 2950 2663 2747 2663 
Q 2541 2663 2389 2472 
Q 2238 2281 2175 2047 
L 1894 916 
Q 1825 659 1825 494 
Q 1825 331 1917 214 
Q 2009 97 2163 97 
Q 2463 97 2698 361 
Q 2934 625 3009 941 
Q 3022 978 3059 978 
L 3138 978 
Q 3163 978 3178 961 
Q 3194 944 3194 922 
Q 3194 916 3188 903 
Q 3097 522 2806 225 
Q 2516 -72 2150 -72 
Q 1916 -72 1727 54 
Q 1538 181 1459 397 
Q 1359 209 1182 68 
Q 1006 -72 806 -72 
Q 669 -72 523 -23 
Q 378 25 287 125 
Q 197 225 197 378 
Q 197 528 301 651 
Q 406 775 563 775 
Q 669 775 741 711 
Q 813 647 813 544 
Q 813 409 723 309 
Q 634 209 500 184 
z
" transform="scale(0.015625)"/>
     <path id="Cmmi10-70" d="M -159 -1241 
Q -219 -1241 -219 -1159 
Q -197 -1019 -134 -1019 
Q 66 -1019 145 -983 
Q 225 -947 269 -800 
L 991 2081 
Q 1038 2200 1038 2388 
Q 1038 2663 850 2663 
Q 650 2663 553 2423 
Q 456 2184 366 1819 
Q 366 1778 313 1778 
L 238 1778 
Q 222 1778 203 1801 
Q 184 1825 184 1844 
Q 253 2122 317 2315 
Q 381 2509 517 2668 
Q 653 2828 856 2828 
Q 1075 2828 1240 2704 
Q 1406 2581 1453 2369 
Q 1628 2572 1840 2700 
Q 2053 2828 2278 2828 
Q 2547 2828 2745 2684 
Q 2944 2541 3044 2308 
Q 3144 2075 3144 1806 
Q 3144 1394 2933 953 
Q 2722 513 2361 220 
Q 2000 -72 1588 -72 
Q 1400 -72 1248 34 
Q 1097 141 1013 313 
L 722 -825 
Q 706 -919 703 -934 
Q 703 -1019 1125 -1019 
Q 1191 -1019 1191 -1100 
Q 1169 -1184 1155 -1212 
Q 1141 -1241 1081 -1241 
L -159 -1241 
z
M 1594 97 
Q 1816 97 2006 280 
Q 2197 463 2316 691 
Q 2403 863 2479 1111 
Q 2556 1359 2612 1640 
Q 2669 1922 2669 2088 
Q 2669 2234 2630 2362 
Q 2591 2491 2502 2577 
Q 2413 2663 2266 2663 
Q 2031 2663 1823 2495 
Q 1616 2328 1447 2081 
L 1447 2059 
L 1094 647 
Q 1138 419 1263 258 
Q 1388 97 1594 97 
z
" transform="scale(0.015625)"/>
     <path id="Cmr10-28" d="M 1984 -1588 
Q 1628 -1306 1370 -942 
Q 1113 -578 948 -165 
Q 784 247 703 697 
Q 622 1147 622 1600 
Q 622 2059 703 2509 
Q 784 2959 951 3375 
Q 1119 3791 1378 4153 
Q 1638 4516 1984 4788 
Q 1984 4800 2016 4800 
L 2075 4800 
Q 2094 4800 2109 4783 
Q 2125 4766 2125 4744 
Q 2125 4716 2113 4703 
Q 1800 4397 1592 4047 
Q 1384 3697 1257 3301 
Q 1131 2906 1075 2482 
Q 1019 2059 1019 1600 
Q 1019 -434 2106 -1491 
Q 2125 -1509 2125 -1544 
Q 2125 -1559 2108 -1579 
Q 2091 -1600 2075 -1600 
L 2016 -1600 
Q 1984 -1600 1984 -1588 
z
" transform="scale(0.015625)"/>
     <path id="DejaVuSans-29" d="M 513 4856 
L 1013 4856 
Q 1481 4119 1714 3412 
Q 1947 2706 1947 2009 
Q 1947 1309 1714 600 
Q 1481 -109 1013 -844 
L 513 -844 
Q 928 -128 1133 580 
Q 1338 1288 1338 2009 
Q 1338 2731 1133 3434 
Q 928 4138 513 4856 
z
" transform="scale(0.015625)"/>
     <path id="Cmmi10-45" d="M 300 0 
Q 238 0 238 84 
Q 241 100 250 139 
Q 259 178 276 201 
Q 294 225 319 225 
Q 709 225 863 269 
Q 947 297 984 441 
L 1863 3956 
Q 1875 4019 1875 4044 
Q 1875 4113 1797 4122 
Q 1678 4147 1338 4147 
Q 1275 4147 1275 4231 
Q 1278 4247 1287 4286 
Q 1297 4325 1314 4348 
Q 1331 4372 1356 4372 
L 4825 4372 
Q 4891 4372 4891 4288 
L 4738 2963 
Q 4738 2947 4714 2926 
Q 4691 2906 4672 2906 
L 4616 2906 
Q 4550 2906 4550 2988 
Q 4588 3300 4588 3450 
Q 4588 3706 4500 3848 
Q 4413 3991 4267 4053 
Q 4122 4116 3945 4131 
Q 3769 4147 3481 4147 
L 2753 4147 
Q 2578 4147 2522 4117 
Q 2466 4088 2419 3928 
L 2034 2381 
L 2534 2381 
Q 2859 2381 3025 2426 
Q 3191 2472 3287 2615 
Q 3384 2759 3463 3072 
Q 3469 3094 3486 3111 
Q 3503 3128 3525 3128 
L 3584 3128 
Q 3647 3128 3647 3047 
L 3250 1466 
Q 3238 1409 3188 1409 
L 3128 1409 
Q 3066 1409 3066 1491 
Q 3128 1747 3128 1869 
Q 3128 2056 2959 2106 
Q 2791 2156 2509 2156 
L 1978 2156 
L 1544 416 
Q 1516 338 1516 275 
Q 1516 225 1734 225 
L 2509 225 
Q 2972 225 3259 297 
Q 3547 369 3736 526 
Q 3925 684 4062 928 
Q 4200 1172 4397 1638 
Q 4409 1678 4453 1678 
L 4513 1678 
Q 4538 1678 4556 1656 
Q 4575 1634 4575 1606 
Q 4575 1594 4569 1581 
L 3909 38 
Q 3897 0 3859 0 
L 300 0 
z
" transform="scale(0.015625)"/>
     <path id="Cmmi10-6e" d="M 494 109 
Q 494 147 500 166 
L 978 2075 
Q 1025 2253 1025 2388 
Q 1025 2663 838 2663 
Q 638 2663 541 2423 
Q 444 2184 353 1819 
Q 353 1800 334 1789 
Q 316 1778 300 1778 
L 225 1778 
Q 203 1778 187 1801 
Q 172 1825 172 1844 
Q 241 2122 305 2315 
Q 369 2509 505 2668 
Q 641 2828 844 2828 
Q 1084 2828 1268 2676 
Q 1453 2525 1453 2291 
Q 1644 2541 1900 2684 
Q 2156 2828 2444 2828 
Q 2672 2828 2837 2750 
Q 3003 2672 3095 2514 
Q 3188 2356 3188 2138 
Q 3188 1875 3070 1503 
Q 2953 1131 2778 672 
Q 2688 463 2688 288 
Q 2688 97 2834 97 
Q 3084 97 3251 365 
Q 3419 634 3488 941 
Q 3500 978 3541 978 
L 3616 978 
Q 3641 978 3658 962 
Q 3675 947 3675 922 
Q 3675 916 3669 903 
Q 3581 541 3364 234 
Q 3147 -72 2822 -72 
Q 2597 -72 2437 83 
Q 2278 238 2278 459 
Q 2278 578 2328 709 
Q 2409 919 2514 1209 
Q 2619 1500 2686 1765 
Q 2753 2031 2753 2234 
Q 2753 2413 2679 2538 
Q 2606 2663 2431 2663 
Q 2197 2663 2000 2559 
Q 1803 2456 1656 2286 
Q 1509 2116 1388 1881 
L 953 141 
Q 931 53 854 -9 
Q 778 -72 684 -72 
Q 606 -72 550 -22 
Q 494 28 494 109 
z
" transform="scale(0.015625)"/>
     <path id="Cmmi10-73" d="M 556 391 
Q 728 97 1247 97 
Q 1472 97 1675 173 
Q 1878 250 2011 403 
Q 2144 556 2144 775 
Q 2144 941 2025 1047 
Q 1906 1153 1734 1191 
L 1388 1259 
Q 1150 1319 997 1481 
Q 844 1644 844 1875 
Q 844 2159 998 2378 
Q 1153 2597 1406 2712 
Q 1659 2828 1931 2828 
Q 2222 2828 2451 2689 
Q 2681 2550 2681 2278 
Q 2681 2131 2598 2018 
Q 2516 1906 2369 1906 
Q 2284 1906 2223 1961 
Q 2163 2016 2163 2100 
Q 2163 2175 2205 2245 
Q 2247 2316 2317 2358 
Q 2388 2400 2463 2400 
Q 2406 2538 2251 2600 
Q 2097 2663 1919 2663 
Q 1756 2663 1593 2597 
Q 1431 2531 1332 2404 
Q 1234 2278 1234 2106 
Q 1234 1991 1315 1903 
Q 1397 1816 1516 1778 
L 1888 1703 
Q 2066 1666 2214 1570 
Q 2363 1475 2448 1329 
Q 2534 1184 2534 997 
Q 2534 759 2401 528 
Q 2269 297 2075 159 
Q 1734 -72 1241 -72 
Q 900 -72 615 84 
Q 331 241 331 550 
Q 331 725 432 854 
Q 534 984 709 984 
Q 813 984 883 921 
Q 953 859 953 756 
Q 953 609 843 500 
Q 734 391 588 391 
L 556 391 
z
" transform="scale(0.015625)"/>
     <path id="Cmr10-29" d="M 416 -1600 
Q 359 -1600 359 -1544 
Q 359 -1516 372 -1503 
Q 1466 -434 1466 1600 
Q 1466 3634 384 4691 
Q 359 4706 359 4744 
Q 359 4766 376 4783 
Q 394 4800 416 4800 
L 475 4800 
Q 494 4800 506 4788 
Q 966 4425 1272 3906 
Q 1578 3388 1720 2800 
Q 1863 2213 1863 1600 
Q 1863 1147 1786 708 
Q 1709 269 1542 -157 
Q 1375 -584 1119 -945 
Q 863 -1306 506 -1588 
Q 494 -1600 475 -1600 
L 416 -1600 
z
" transform="scale(0.015625)"/>
    </defs>
    <use xlink:href="#Cmmi10-58" transform="translate(0 0.917188)"/>
    <use xlink:href="#DejaVuSans-2d" transform="translate(82.8125 0.917188)"/>
    <use xlink:href="#DejaVuSans-56b" transform="translate(118.896484 0.917188)"/>
    <use xlink:href="#DejaVuSans-20" transform="translate(182.275391 0.917188)"/>
    <use xlink:href="#DejaVuSans-565" transform="translate(214.0625 0.917188)"/>
    <use xlink:href="#DejaVuSans-576" transform="translate(277.441406 0.917188)"/>
    <use xlink:href="#DejaVuSans-569" transform="translate(340.820312 0.917188)"/>
    <use xlink:href="#DejaVuSans-561" transform="translate(414.648438 0.917188)"/>
    <use xlink:href="#DejaVuSans-562" transform="translate(512.060547 0.917188)"/>
    <use xlink:href="#DejaVuSans-561" transform="translate(575.439453 0.917188)"/>
    <use xlink:href="#DejaVuSans-566" transform="translate(672.851562 0.917188)"/>
    <use xlink:href="#DejaVuSans-574" transform="translate(736.328125 0.917188)"/>
    <use xlink:href="#DejaVuSans-578" transform="translate(799.707031 0.917188)"/>
    <use xlink:href="#DejaVuSans-582" transform="translate(863.085938 0.917188)"/>
    <use xlink:href="#DejaVuSans-569" transform="translate(906.542969 0.917188)"/>
    <use xlink:href="#DejaVuSans-575" transform="translate(980.371094 0.917188)"/>
    <use xlink:href="#DejaVuSans-578" transform="translate(1007.519531 0.917188)"/>
    <use xlink:href="#DejaVuSans-582" transform="translate(1070.898438 0.917188)"/>
    <use xlink:href="#DejaVuSans-576" transform="translate(1114.355469 0.917188)"/>
    <use xlink:href="#DejaVuSans-576" transform="translate(1177.734375 0.917188)"/>
    <use xlink:href="#DejaVuSans-565" transform="translate(1241.113281 0.917188)"/>
    <use xlink:href="#DejaVuSans-580" transform="translate(1304.492188 0.917188)"/>
    <use xlink:href="#DejaVuSans-56b" transform="translate(1367.871094 0.917188)"/>
    <use xlink:href="#DejaVuSans-20" transform="translate(1431.25 0.917188)"/>
    <use xlink:href="#DejaVuSans-562" transform="translate(1463.037109 0.917188)"/>
    <use xlink:href="#DejaVuSans-561" transform="translate(1526.416016 0.917188)"/>
    <use xlink:href="#DejaVuSans-566" transform="translate(1623.828125 0.917188)"/>
    <use xlink:href="#DejaVuSans-574" transform="translate(1687.304688 0.917188)"/>
    <use xlink:href="#DejaVuSans-578" transform="translate(1750.683594 0.917188)"/>
    <use xlink:href="#DejaVuSans-582" transform="translate(1814.0625 0.917188)"/>
    <use xlink:href="#DejaVuSans-569" transform="translate(1857.519531 0.917188)"/>
    <use xlink:href="#DejaVuSans-575" transform="translate(1931.347656 0.917188)"/>
    <use xlink:href="#DejaVuSans-578" transform="translate(1958.496094 0.917188)"/>
    <use xlink:href="#DejaVuSans-582" transform="translate(2021.875 0.917188)"/>
    <use xlink:href="#DejaVuSans-576" transform="translate(2065.332031 0.917188)"/>
    <use xlink:href="#DejaVuSans-568" transform="translate(2128.710938 0.917188)"/>
    <use xlink:href="#DejaVuSans-20" transform="translate(2192.089844 0.917188)"/>
    <use xlink:href="#DejaVuSans-56f" transform="translate(2223.876953 0.917188)"/>
    <use xlink:href="#DejaVuSans-576" transform="translate(2287.255859 0.917188)"/>
    <use xlink:href="#DejaVuSans-577" transform="translate(2350.634766 0.917188)"/>
    <use xlink:href="#DejaVuSans-561" transform="translate(2400.488281 0.917188)"/>
    <use xlink:href="#DejaVuSans-576" transform="translate(2497.900391 0.917188)"/>
    <use xlink:href="#DejaVuSans-561" transform="translate(2561.279297 0.917188)"/>
    <use xlink:href="#DejaVuSans-56f" transform="translate(2658.691406 0.917188)"/>
    <use xlink:href="#DejaVuSans-565" transform="translate(2722.070312 0.917188)"/>
    <use xlink:href="#DejaVuSans-576" transform="translate(2785.449219 0.917188)"/>
    <use xlink:href="#DejaVuSans-584" transform="translate(2848.828125 0.917188)"/>
    <use xlink:href="#DejaVuSans-20" transform="translate(2912.451172 0.917188)"/>
    <use xlink:href="#Cmr10-32" transform="translate(2944.238281 0.917188)"/>
    <use xlink:href="#Cmmi10-58" transform="translate(2998.702422 39.18125) scale(0.7)"/>
    <use xlink:href="#DejaVuSans-2d" transform="translate(3063.048516 0.917188)"/>
    <use xlink:href="#DejaVuSans-578" transform="translate(3099.1325 0.917188)"/>
    <use xlink:href="#DejaVuSans-57e" transform="translate(3162.511406 0.917188)"/>
    <use xlink:href="#DejaVuSans-589" transform="translate(3225.890313 0.917188)"/>
    <use xlink:href="#DejaVuSans-20" transform="translate(3259.581719 0.917188)"/>
    <use xlink:href="#DejaVuSans-20" transform="translate(3291.368828 0.917188)"/>
    <use xlink:href="#DejaVuSans-56f" transform="translate(3323.155938 0.917188)"/>
    <use xlink:href="#DejaVuSans-561" transform="translate(3386.534844 0.917188)"/>
    <use xlink:href="#DejaVuSans-574" transform="translate(3483.946953 0.917188)"/>
    <use xlink:href="#DejaVuSans-20" transform="translate(3547.325859 0.917188)"/>
    <use xlink:href="#Cmmi10-65" transform="translate(3579.112969 0.917188)"/>
    <use xlink:href="#Cmmi10-78" transform="translate(3625.597344 0.917188)"/>
    <use xlink:href="#Cmmi10-70" transform="translate(3682.677422 0.917188)"/>
    <use xlink:href="#Cmr10-28" transform="translate(3732.970391 0.917188)"/>
    <use xlink:href="#Cmmi10-58" transform="translate(3771.78875 0.917188)"/>
    <use xlink:href="#DejaVuSans-29" transform="translate(3854.60125 0.917188)"/>
    <use xlink:href="#DejaVuSans-20" transform="translate(3893.614922 0.917188)"/>
    <use xlink:href="#Cmmi10-45" transform="translate(3925.402031 0.917188)"/>
    <use xlink:href="#Cmmi10-6e" transform="translate(3999.181328 0.917188)"/>
    <use xlink:href="#Cmmi10-73" transform="translate(4059.191094 0.917188)"/>
    <use xlink:href="#Cmr10-28" transform="translate(4105.968437 0.917188)"/>
    <use xlink:href="#Cmmi10-58" transform="translate(4144.786797 0.917188)"/>
    <use xlink:href="#Cmr10-29" transform="translate(4227.599297 0.917188)"/>
    <use xlink:href="#DejaVuSans-20" transform="translate(4266.417656 0.917188)"/>
   </g>
  </g>
 </g>
</svg>
